<svg xmlns="http://www.w3.org/2000/svg" xmlns:xlink="http://www.w3.org/1999/xlink" t="1626176807702" class="icon" viewBox="0 0 1024 1024" version="1.1" p-id="1267" width="200" height="200"><defs><style type="text/css"/></defs><path d="M556.8 535.893333L170.666667 149.76c-13.226667-13.226667-13.226667-34.986667 0-48.213333 13.226667-13.226667 34.986667-13.226667 48.213333 0l386.133333 386.133333c13.226667 13.226667 13.226667 34.986667 0 48.213333-13.226667 13.226667-34.986667 13.226667-48.213333 0z" fill="#f3f3f3" p-id="1268"/><path d="M170.666667 873.813333l386.133333-386.133333c13.226667-13.226667 34.986667-13.226667 48.213333 0 13.226667 13.226667 13.226667 34.986667 0 48.213333l-386.133333 386.133334c-13.226667 13.226667-34.986667 13.226667-48.213333 0a33.493333 33.493333 0 0 1 0-48.213334z" fill="#f3f3f3" p-id="1269"/><path d="M825.173333 536.32l-386.133333-386.133333c-13.226667-13.226667-13.226667-34.986667 0-48.213334 13.226667-13.226667 34.986667-13.226667 48.213333 0l386.133334 386.133334c13.226667 13.226667 13.226667 34.986667 0 48.213333a33.493333 33.493333 0 0 1-48.213334 0z" fill="#f3f3f3" p-id="1270"/><path d="M439.04 874.24l386.133333-386.133333c13.226667-13.226667 34.986667-13.226667 48.213334 0 13.226667 13.226667 13.226667 34.986667 0 48.213333l-386.133334 386.133333c-13.226667 13.226667-34.986667 13.226667-48.213333 0-13.226667-13.226667-13.226667-34.56 0-48.213333z" fill="#f3f3f3" p-id="1271"/></svg>